<?xml version="1.0" encoding="utf-8"?>
<!-- Generator: Adobe Illustrator 22.1.0, SVG Export Plug-In . SVG Version: 6.00 Build 0)  -->
<svg version="1.1" id="Capa_1" xmlns="http://www.w3.org/2000/svg" xmlns:xlink="http://www.w3.org/1999/xlink" x="0px" y="0px"
	 viewBox="0 0 1920 1080" style="enable-background:new 0 0 1920 1080;" xml:space="preserve">
<style type="text/css">
	.st0{fill:#pink;}
	.st1{fill:#FF0000;}
</style>
<g>
	<rect x="159.5" y="98.5" class="st0" width="465" height="363"/>
	<path class="st1" d="M620,103v354H164V103H620 M629,94H155v372h474V94L629,94z"/>
</g>
<g>
	<g>
		<path class="st1" d="M1022.3,169.7c-88.6,132.4-177.4,264.7-265.9,397.3c-7.8,11.7-16.9,25.3-16.4,40.1c0.5,12.5,9.1,21,19.8,26.2
			c30,14.6,65.4,15.9,98,12.8c36.2-3.4,72-11.8,107.5-19.8c37.4-8.5,74.5-18,111.4-28.3c74.5-20.6,148.2-44,221.8-67.7
			c4.4-1.4,8.9-2.8,13.3-4.3c4.7-1.5,9.1-4.6,12.1,0.2c4.2,6.9,4.4,17.4,3.9,25.2c-1.2,17.3-9.2,33.8-20.7,46.6
			c-23.5,26-58.6,39.7-90.1,53.2c-67.9,28.9-139,50.3-211.5,63.9c-37.3,7-74.9,11.9-112.8,14.6c-30.5,2.2-72.8,8.7-96.8-15.3
			C784,702.4,780.7,685,778.4,669c-2.9-20.7-5.4-41.5-8.1-62.2c-5.1-39.2-10.1-78.4-15.2-117.5c-10.2-78.9-20.4-157.9-30.6-236.8
			c-2.5-19.6-5.1-39.2-7.6-58.8c-0.2-1.4-2-2.1-2.8-0.8c-57.6,95-115.9,191.4-150.6,297.6c-8.8,26.8-15.9,54.1-21.1,81.8
			c-4.6,24.5-7.7,49.8-4.3,74.7c6.5,47.8,40.3,78.8,83.3,96.3c49.2,20,104.8,27,157.6,27.8c56.6,0.8,113-6.7,168.1-19.2
			c57-12.9,112.7-31.1,167.3-51.8c48.5-18.4,96.7-38.2,143.2-61.3c45-22.4,88.6-48.3,127.7-80c19.2-15.6,37.4-32.7,53.8-51.3
			c15.1-17.1,33.3-36.9,38.5-59.8c2.2-9.6,1.2-18.8-3.8-27.3c-0.3-0.5-0.8-0.8-1.3-0.7c-96.8,1.4-190.7,27.5-282.8,55.1
			c-90.2,27-179.5,57-267.7,89.9c-176.5,65.8-348.8,143.1-515.2,231.4c-40.1,21.3-80.2,42.7-118.4,67.2c-18,11.5-35.6,23.8-52.4,37
			c-16.9,13.3-34.5,27.5-47.8,44.5c-10,12.7-17.1,28.4-12.9,44.8c3.4,13.3,13.7,23,25.3,29.6c14,7.9,30,12,45.8,14.5
			c22.6,3.5,45.5,5.8,68.2,8.1c196.3,19.6,395.2,12.1,591.7-0.2c188.1-11.7,377.6-34.7,556.7-96.1c2-0.7,5.9-1.1,7.3-2.9
			c2.2-3,2.1-10.4,2.9-14.2c2.5-12.7,5-25.4,7.5-38.1c0.1-0.5,0-1.1-0.4-1.5c-83.1-64.7-173.8-118.8-267.1-167.3
			c-94.7-49.2-192.2-92.9-289-137.7c-46.5-21.5-93.6-42.5-138.9-66.5c-21.6-11.4-42.7-24.1-61.7-39.6c-8.8-7.2-17.1-15-24.6-23.5
			c-4.1-4.6-8-9.5-11.6-14.6c-3.4-4.8-8.9-10.9-8.4-16.7c0.8-10.5,11.5-23.2,17.9-31c6.8-8.4,14.7-16,23-22.9
			c17.9-14.8,38.1-26.5,58.8-36.9c50.6-25.7,103-48.2,154.6-72c109.5-50.6,219.1-101.3,328.6-151.9c13.6-6.3,27.2-12.6,40.9-18.9
			c1.7-0.8,0.4-3-1.2-2.7c-125.5,18.5-250,50.4-364.7,105.4c-103.8,49.8-198.8,119.2-272.4,208.2c-35.3,42.7-65.5,89.7-88.4,140.1
			c-24.1,52.8-44.7,114.6-25.7,172.2c16.1,48.9,56.9,85.3,100.7,109.8C704.3,852.1,765,867.7,825,876c63,8.7,126.9,9.3,190.4,8.2
			c64.6-1.2,129.2-5.1,193.1-14.8c64.4-9.8,128.1-25.8,188.3-50.8c24.1-10,48.9-21.6,67.1-40.9c17.2-18.2,25.7-42.1,25.2-67
			c-1-54.7-38.3-97.7-82.4-125.8c-24.7-15.7-51.5-27.8-78.2-39.5c-28.4-12.4-57.2-24.2-86.2-35.2c-118.6-45-241.8-77.9-367-98.4
			c-124.3-20.4-250.6-28.6-376.5-24.5c-125.9,4.1-251.3,20.6-373.9,49.7c-16.7,4-47,7.4-49.2,29.4c0,0.5,0.3,1.1,0.7,1.3
			c72.2,39.3,158.2,46.2,238.4,55.6c90.1,10.7,180.6,18,271.2,23.3c90.6,5.3,181.4,8.6,272.1,11.3c91,2.7,182.1,5.5,273.2,4.6
			c50.2-0.5,100.4-2.2,150.4-5.9c23.1-1.7,46.5-3,69.4-6.6c15.1-2.4,31.4-7.5,38-22.5c0.3-0.8,0.2-1.5-0.5-2.1
			c-87.1-61.3-194.2-85.4-297.6-103.1c-115.3-19.8-232.6-28.4-349.5-25.5c-55.9,1.4-112,5.6-167.1,15.7
			c-27.7,5.1-55.1,11.7-81.9,20.2c-19.9,6.3-42.2,13.2-56.4,29.4c-32.3,36.9,8.7,81.7,37.5,104.6c39.1,31.1,84.8,52.4,131.3,69.9
			c104.3,39.1,213.6,66.1,323.6,83.1c110.3,17.1,222.2,23.5,333.7,19.1c55.3-2.2,110.4-7,165.2-14.5c42.7-5.9,97-10.2,116.6-55.5
			c16.1-37.3,3.5-80.1-21.9-109.8c-31.1-36.3-77.6-57.8-120.9-75.6c-100-41.2-208.3-57.6-315.7-64.2c-118.8-7.3-238-2.8-356.8-8.7
			c-29.1-1.4-58.2-3.5-87.2-6.5c0.5,0.6,1,1.3,1.4,1.9c5.8-23.1,24.4-38.3,44.1-49.8c20.5-12,42.5-21.7,64.1-31.5
			c48.7-22.2,98.5-41.9,149.1-59c48.7-16.5,98.1-30.6,148.1-42.4c23.1-5.4,54.7-15.2,73,5.9c14.3,16.4,12.2,42,7.8,61.7
			c-21.1,96-81.5,181.5-142.2,256.6C925.4,623.7,855.5,693.3,782,758.7c-83.4,74.1-171.3,142.9-259.3,211.5
			c-1.4,1.1,0.4,3.2,1.8,2.4c154.8-89.6,301.9-192.3,438.2-308.2c144.5-123,274.9-261.5,407.1-397.4c76.5-78.7,153-157.3,229.5-236
			c1-1.1,0-2.9-1.5-2.5c-90.1,24.3-171.8,73.4-251,121.3c-79.1,47.8-156,99.2-230.4,154c-73.3,53.8-144.2,110.9-212.5,171
			c-34.5,30.3-68.3,61.4-101.4,93.3c-31.6,30.4-64.3,60.7-91.9,94.9c-12.7,15.8-24.2,32.7-32.5,51.2c-3.5,7.8-6.4,15.9-8.6,24.2
			c-1.2,4.6-2.1,9.2-2.8,13.9c-0.4,2.6-1.9,7.4-0.8,9.7c1,2.1,5.5,4.4,7.4,5.8c4.2,3.1,8.6,5.9,13,8.6c8.6,5.2,17.6,9.6,26.8,13.4
			c18.5,7.6,38,12.7,57.7,16.1c41.9,7.2,84.7,7.3,127.1,6.7c49.1-0.7,98.2-3.5,147.2-8.3c96.3-9.5,191.7-27,285.1-52.3
			c46.9-12.7,93.3-27.3,138.9-43.9c41.1-14.9,82.1-31.2,119.5-54c66.4-40.5,125.6-110.4,118.8-192.9c-6.4-77.1-68.2-136.9-137-164
			c-87.6-34.5-188.4-28.1-279.9-16.1c-99.2,13-197.7,34.3-295.1,56.9c-97.6,22.6-194.4,48.6-290.2,77.7
			c-92.5,28.1-184.9,58.5-272.3,100.3c-57.3,27.5-144.5,77.5-120,155c10.9,34.6,41.7,59.4,71.8,77.1c38.9,22.9,81.8,39.6,124.7,53.3
			c93.8,30,191.8,47.7,288.4,66.1c100.6,19.2,201.6,36.5,302.6,54c202.8,35.3,405.6,70.6,608.4,105.9c49.5,8.6,99,17.2,148.6,25.9
			c0.1-1,0.3-2,0.4-2.9c-178.8,17.2-358.4,23.8-537.9,24.6c-90.5,0.4-180.9-0.7-271.3-2.6c-85.3-1.8-170.9-2.4-256.1-7.3
			c-34.7-2-69.7-5.8-103.2-15.7c-31.1-9.2-66.5-25.1-87.2-51.1c-5.2-6.6-4.5-16.1-4.2-24.2c0.4-9.4,1.9-18.7,4.3-27.8
			c4.5-16.5,12.1-31.9,21.4-46.2c19.7-30.1,46.5-55.2,74.5-77.5c62.2-49.5,129.9-92.9,196.6-136.1c66.4-43,133.5-84.8,200.3-127.1
			c133.1-84.3,265.4-171.2,385.2-274c15.2-13,30.1-26.3,44.8-39.7c0.5-0.4,0.6-1.3,0.2-1.8c-15.8-23-52.6-2.6-71.4,4.8
			c-34.4,13.7-68.7,28.1-102.6,43c-69.6,30.7-138.2,63.8-205.4,99.4C1012.4,461.4,884,541.5,762.2,630.5
			c-64.8,47.4-127.8,98.7-175.6,163.9c-0.3,0.4-0.3,1.1,0,1.5c33.8,55.2,106.3,62.3,164.9,64.8c88.1,3.8,176.4,1.9,264.3-5.5
			c87.4-7.3,174.4-20.1,260.2-38.3c81.1-17.2,162.5-37.9,237.7-73.2c56-26.3,136.5-70.1,121.5-144.7
			c-15.2-75.2-100.6-105.6-163.8-129.3c-143.9-53.8-298.7-77.6-452.2-71.9c-152.1,5.7-303.3,40.4-441.8,103.7
			c-17.5,8-34.7,16.4-51.7,25.3c-0.4,0.2-0.8,0.8-0.7,1.3c1.2,17.9,2.5,35.8,3.7,53.7c0,0.5,0.3,1.1,0.7,1.3
			c95.6,43.3,200.3,59.3,304.5,63.1c106.1,3.8,213.1-2,318.7-12.2c207.4-20,415.3-66.1,600.5-164.5c42.9-22.8,88-49.1,112.9-92.5
			c21.5-37.6,23.9-83.2-2.4-119c-25.1-34.3-66.2-53.4-105.6-66c-51.2-16.3-104.9-23.5-158.4-25.9c-105.1-4.6-211.5,5.4-314.9,24.1
			c-103.8,18.7-205.7,47.3-304.8,83.3c-98.8,35.9-194.9,79.2-288,128c-46.5,24.3-92.2,50-137.2,76.9
			c-42.5,25.3-84.8,51.9-121.3,85.4c-17,15.7-32.6,32.8-46.1,51.6c-0.3,0.4-0.2,1.1,0,1.5c31.2,60.4,114.4,56.9,172.1,55
			c84.2-2.8,168.2-11.3,251.3-25.3c166-28,328.3-78.1,481.3-148.4c86.9-40,170.8-86.6,250.7-139.2c1.3-0.9,0.5-3.4-1.2-2.7
			c-104.2,39.6-204.9,88.3-300.4,145.8c-48.4,29.1-95.5,60.4-141,93.8c-40.4,29.6-80.7,60.4-114.7,97.4
			c-35.4,38.5-63.2,84.3-69.3,137c-0.1,0.7,0.5,1.3,1.1,1.4c130.1,42.9,263.1-38.8,349.8-130.4c48.6-51.4,89.8-109.8,121.8-172.9
			c28.4-56,54.4-119,50.6-183.1c-1.7-27.7-9.7-55.1-26.8-77.3c-19.4-25.3-48.2-40.5-78.3-49.4c-34.1-10.1-70.4-13.6-105.8-15
			c-40.2-1.6-80.6,0.8-120.5,5.9c-78.2,10.1-154.6,30.4-229.8,53.7c-74.4,23-147.8,49.3-219.8,78.9c-71.7,29.4-142,61.9-210.8,97.5
			c-34.5,17.9-68.6,36.5-102.3,55.9c-27.9,16.1-55.9,33.3-78.5,56.5c-10.8,11.2-20,23.7-27.1,37.5c-0.3,0.6-0.3,1.4,0.2,1.8
			c36.4,32.8,80.4,55,126,72.3c51.5,19.6,104.9,34.8,157.9,49.8c111.6,31.8,224.5,58.6,337.8,83.7c64.1,14.2,128.3,27.8,192.6,41.4
			c0.3-1,0.5-1.9,0.8-2.9C856.2,804,658.8,763.1,463.8,713.1c-55.6-14.2-110.9-29.2-166.1-44.9c-1.9-0.5-2.7,2.4-0.8,2.9
			c193.6,55.1,389.8,101.3,587.7,138.2c56.4,10.5,112.9,20.3,169.5,29.3c1.9,0.3,2.7-2.5,0.8-2.9c-133.6-28.3-267.3-56.6-399.7-90
			c-66.4-16.8-132.6-34.9-198.1-54.9c-58-17.7-117.3-35.8-169.4-67.6c-13.2-8-25.8-17-37.7-26.9c-2.4-2-6.4-4.2-6.5-7.7
			c0-2.4,3.6-6.4,4.9-8.5c4.1-6.6,8.8-12.8,13.9-18.7c18.5-21.4,42.1-37.8,66.1-52.4c54.4-33.1,111.2-62.7,168.4-90.8
			C614,360.6,735.5,311.7,860,272.2c126.2-40.1,258.8-74.6,392.4-64.1c57.1,4.5,124.3,15.2,160.2,65
			c32.1,44.5,27.5,104.6,13.8,154.8c-15.2,55.8-42.8,109.1-73.4,157.9c-31.8,50.6-69.8,97.9-113.4,138.9
			c-80.1,75.6-196.4,138.8-309.4,108c-2-0.5-7.9-1.3-9.5-2.8c-2.6-2.6-0.5-8.2,0.1-11.5c1.2-6.8,2.8-13.5,4.7-20.1
			c4.1-13.9,9.7-27.3,16.5-40c13.1-24.6,30.3-46.8,49.4-67c40.4-42.7,88.6-77.8,136.4-111.7c102.3-72.3,212-134.3,326.7-184.6
			c28.9-12.7,58.2-24.6,87.8-35.8c-0.4-0.9-0.8-1.8-1.2-2.7c-141.2,93.2-294.9,167.1-455.8,219.5c-160.3,52.3-327.5,83.5-495.9,91.7
			c-37,1.8-75,4.4-111.8-0.9c-32-4.6-66.4-16.3-84.2-45.3c-3.2-5.3-1.5-7.4,1.9-11.9c3.5-4.7,7.2-9.2,11.1-13.7
			c6.5-7.6,13.3-14.8,20.5-21.8c15-14.6,31.2-28,48-40.4c32.9-24.3,68.2-45.2,103.5-65.9c148.6-86.9,305.2-161.2,469.1-214.4
			c161.9-52.6,331.3-84.5,501.9-85.3c45.7-0.2,91.5,2.1,136.6,9.6c41,6.9,83,17.4,119.9,36.8c31.7,16.7,62.1,42.2,71.5,78.2
			c11.1,42.3-9.7,85.7-39.2,115.3c-30,30-68.9,50-106.3,69c-38.2,19.4-77.4,36.7-117.4,52c-78.9,30.2-160.5,52.9-243.2,69.7
			c-84.8,17.2-170.7,28.4-256.9,35.5c-85.5,7-171.7,11.2-257.6,9.4c-86.7-1.8-174.1-10.9-257.1-37.1c-9.2-2.9-18.3-6-27.3-9.3
			c-11.4-4.2-25.1-7.9-35.4-14.3c-5.8-3.6-5.5-7.2-6-13.9c-0.4-5.4-0.7-10.7-1.1-16.1c-0.4-5.9-1.4-12-1.2-17.9
			c0.2-8.6,5.2-9.2,12.3-12.8c36.4-18.3,73.8-34.7,112-48.9c151.8-56.6,315.4-80.6,477.1-71.7c81.5,4.5,162.6,17.4,241.4,38.8
			c39,10.6,77.4,23.2,115,37.9c38.8,15.2,80.1,31.2,110.8,60.4c30,28.5,47.7,72.7,29.3,112.4c-16.6,35.8-53,58.1-86.5,75.9
			c-77.7,41.5-163.7,64.6-249.3,83.4c-180.8,39.7-368.6,57-553.5,46.3c-34.7-2-70.9-6.5-102.4-22.2c-15.5-7.7-29.6-18.4-40-32.3
			c-2.8-3.7-5.1-5.9-2.7-10.4c2.5-4.8,6.8-9,10.2-13.3c7.1-8.9,14.6-17.6,22.3-26c57-62.5,126.8-112.1,195.9-160.2
			c142.3-99.1,292.8-186.3,449.3-260.8c39.3-18.7,78.9-36.5,118.9-53.5c20.9-8.9,41.9-17.5,62.9-26c16.7-6.7,35.9-17.4,54.4-16.2
			c4.2,0.3,9.7,1.2,12.7,4.5c4.4,4.8-1.6,7.7-5.2,11c-8.6,7.8-17.2,15.4-25.9,23c-15.8,13.8-31.9,27.3-48.2,40.5
			c-32.8,26.7-66.5,52.4-100.8,77.3c-135.9,98.8-280.3,184.9-421.6,275.6c-70.3,45.2-140.7,91.1-207.5,141.5
			c-52.8,39.9-113.7,95.3-114.9,166.8c-0.1,5.3-1,14.5,1.4,19.5c3.3,6.9,13,13.7,18.7,18.5c12.6,10.5,26.6,19,41.5,25.8
			c30.5,13.9,63.7,20.6,96.8,24.4c39.4,4.5,79.1,4.9,118.6,6.1c47,1.4,94,2.6,141,3.7c190.3,4.4,380.8,5.5,571-2.5
			c91.5-3.9,182.9-9.9,274-18.7c1.5-0.1,2.2-2.6,0.4-2.9c-195.7-34.1-391.5-68.1-587.2-102.2c-194.1-33.8-388.9-65.1-581.9-105.4
			c-90.9-19-183.1-38.9-267.5-78.9c-36.1-17.1-74.7-38.3-96.2-73.3c-21.3-34.5-14.8-74.2,10.4-104.6c25.1-30.2,60.8-49.3,95.6-66.1
			c42.8-20.6,86.8-38.5,131.5-54.6c89.9-32.5,181.9-59.6,274.1-84.6c93.3-25.3,187.4-47.6,282.1-66.8c96.4-19.5,194.2-38.6,293-38.9
			c85.2-0.3,177.9,15,240,78.4c27.4,28,47.6,64.2,52,103.6c4.5,40.8-8.8,81.3-31.2,115.1c-49.4,74.2-136.5,108.9-217.2,137.5
			c-88.4,31.3-179.3,55.4-271.6,72.1c-93.3,16.9-187.9,26.2-282.6,27.7c-42.2,0.7-85,0.8-126.8-6c-19.7-3.2-39.3-8.1-57.9-15.5
			c-9.5-3.8-18.7-8.3-27.5-13.5c-4.1-2.4-8-5-11.9-7.7c-2.6-1.8-4.7-3.1-6.4-5.9c-2.6-4.3-1.1-8.6-0.1-13.4
			c7.9-40.6,34-74.8,61.5-104.5c29.7-32.2,61.7-62.5,93.6-92.6c64.5-60.9,131.6-119,201-174.1c70.2-55.7,142.8-108.4,217.5-157.8
			c74.3-49.1,150.6-96.8,230-137.4c39.9-20.4,81.2-37.9,124.5-49.6c-0.5-0.8-1-1.7-1.5-2.5c-134.5,138.3-268,277.6-403.8,414.6
			c-66.5,67.1-134.2,133-205.4,195.1c-67.6,59.1-138,114.8-210.9,167.3c-81.9,58.9-166.8,113.6-254.1,164.1c0.6,0.8,1.2,1.6,1.8,2.4
			C689.9,843.5,857,713,989.4,549.3c31.7-39.3,61.8-80.1,87.2-123.8c24.5-42.1,46.5-88.5,56.2-136.5c3.5-17.3,4.9-37.3-3.3-53.6
			c-9.2-18.4-28.7-23.8-47.9-22c-24.5,2.3-49.2,10.1-72.9,16.3c-27,7.1-53.8,14.8-80.5,23.3c-57.6,18.3-114.2,39.9-169.3,64.6
			c-26.2,11.7-53.4,23.2-77.9,38.4c-18.6,11.6-35.3,26.9-40.9,48.8c-0.3,1,0.5,1.8,1.4,1.9c144.9,14.8,290.7,6.4,435.9,14.7
			c131.6,7.5,270.5,28.5,386.5,95.2c49.3,28.4,98,78.4,80.9,140.4c-8.6,31.2-34.6,47.8-64.6,55.1c-33,8-67.6,11.1-101.3,14.8
			c-136.3,14.7-274.4,13-410.3-4.8c-68.9-9.1-137.3-22.3-204.7-39.6c-65.1-16.7-130.4-36.1-192.2-62.7c-29-12.5-57.2-27.2-83-45.6
			c-24.8-17.7-54-41-60.4-72.6c-7.3-36.6,27.9-54.1,56.7-63.7c33.1-11,67.2-19,101.6-24.8c70-11.8,141.4-14.5,212.3-14
			c71.9,0.5,143.8,5.4,215.2,14.5c69,8.8,138.1,20.8,205.2,39.3c31.4,8.7,62.4,19.1,92.1,32.4c14.6,6.5,28.9,13.7,42.8,21.7
			c6.7,3.9,13.3,7.9,19.8,12.1c2.4,1.6,8.9,4.4,10.3,6.9c1.9,3.4-1.4,6.3-4.1,8.9c-10.8,10.5-28.1,12-42.2,13.5
			c-18.2,1.9-36.4,3.6-54.7,4.9c-35.9,2.7-71.9,4.3-107.9,5.2c-72.7,1.8-145.4,0.7-218-1.1c-145.9-3.6-291.8-8-437.3-18.2
			c-73.3-5.2-146.6-11.8-219.6-20.8c-67.6-8.3-138.6-15-201.5-43c-4.7-2.1-20.3-6.8-19.9-13.1c0.5-7.7,12.7-13.1,18.7-15.4
			c13.8-5.1,28.9-7.6,43.2-10.9c32.2-7.3,64.6-13.8,97.2-19.5c65.5-11.3,131.7-19.1,198-23.5c131.8-8.6,264.5-3.6,395.3,14.8
			c130.4,18.4,258.9,50.1,382.7,94.9c31.5,11.4,62.6,23.6,93.4,36.7c28.3,12,56.8,24.2,83.5,39.4c52.2,29.7,101.1,79.7,94.2,144.7
			c-7.3,68.4-86.3,93.1-141.9,111.1c-65.1,21.1-133,33-201,39.5c-67.1,6.4-134.8,8.2-202.2,6.9c-67.2-1.3-134.9-7.2-199.7-25.8
			c-57.3-16.5-115.6-42.9-155.5-88.8c-19.9-22.9-33.8-50.5-37.8-80.7c-4.6-34.2,2.7-68.7,13.8-100.9
			c38.9-112.5,117-210.1,208.6-284.5c100.6-81.7,220.4-136.4,344.6-171.5c61.7-17.4,124.6-30.1,188-39.4c-0.4-0.9-0.8-1.8-1.2-2.7
			c-99.7,46.1-199.4,92.2-299.2,138.3c-49.6,22.9-99.2,45.8-148.8,68.8c-41.1,19-84.3,36.2-121.5,62.4c-15,10.6-29,22.9-40.2,37.6
			c-5.3,7-10,14.4-13.7,22.3c-1,2.2-3.4,5.9-3.3,8.4c0.1,3.5,5.3,9.3,7.2,12.1c22.5,34.1,56.9,58.2,92.2,77.8
			c39.8,22,81.6,40.6,122.8,59.8c44.3,20.7,88.8,40.9,133.2,61.5c87.5,40.6,174.6,82.2,258.6,129.8c41.3,23.4,81.8,48.3,121,75.1
			c20.1,13.7,39.8,27.9,59.1,42.7c3.6,2.7,8.1,4.5,8.7,9.5c0.3,2.5-1.2,6.2-1.7,8.6c-1.2,6.3-2.5,12.7-3.7,19
			c-1,5.1-1,12.6-3.4,17.3c-3.1,6.3-15.8,8-22,10c-196.3,64.7-403.8,84.3-609.2,94.5c-106.8,5.3-213.8,9.1-320.7,7.4
			c-54.3-0.9-108.7-3.2-162.8-7.6c-25.9-2.1-51.8-4.7-77.6-7.8c-21.2-2.5-42.8-4.6-62.8-12.7c-18.1-7.3-35.8-20.7-36.1-42
			c-0.3-25.7,23.9-45.7,41.5-61.1c36.8-32.2,78.3-58.4,120.8-82.4c88.1-49.9,178.9-95.2,270.7-137.9
			c185.8-86.4,377.8-159.6,574.1-218.7c50.4-15.2,101-29.9,152.5-40.7c26.8-5.6,53.8-10.2,81.1-13c12.5-1.3,25.1-2.2,37.7-2.8
			c4.7-0.2,13.6-2.3,17.3,1.2c4.9,4.6,3.3,16.9,2,22.6c-5.1,22.7-23.7,42.6-38.7,59.5c-14.6,16.4-30.5,31.6-47.3,45.7
			c-34.3,28.7-72.3,52.6-111.8,73.5c-39.9,21.1-81.3,39.1-123.1,56c-47.4,19.1-95.5,36.7-144.6,51.1
			c-97.1,28.5-200.2,45.1-301.2,29.9c-42.6-6.4-88.9-16.8-124.1-43c-18.9-14-33-33.1-39.4-55.9c-6.8-23.9-5.6-49.5-2-73.9
			c14.1-96.8,55.6-188.1,102.4-273.1c22.8-41.4,47.2-81.8,71.8-122.2c-0.9-0.3-1.9-0.5-2.8-0.8c11.1,85.5,22.1,170.9,33.2,256.4
			c5.6,43.3,11.2,86.7,16.8,130c2.8,21.4,5.5,42.7,8.3,64.1c2.2,17.2,3.2,35.4,9.2,51.8c10.8,29.7,39.3,38.2,68.4,38.6
			c37.4,0.5,75.4-4.2,112.4-9.4c79.2-11.3,157-31.8,231.4-61.2c19.4-7.7,38.6-15.9,57.5-24.8c17.2-8.1,34.2-17.2,48.6-29.7
			c24.9-21.7,40.8-57.8,24.7-89.4c-0.3-0.6-1.1-0.9-1.7-0.7c-138.3,44.5-277.3,90-420.2,117.1c-34.8,6.6-71,11.4-106.2,5
			c-15.5-2.8-36.2-7.3-47.2-19.5c-14.1-15.7-0.4-37.8,9-52c41.5-62.3,83.3-124.5,125-186.7c47.3-70.7,94.6-141.4,141.9-212.1
			C1026,169.6,1023.4,168.1,1022.3,169.7L1022.3,169.7z"/>
	</g>
</g>
</svg>
